<?xml version="1.0" encoding="iso-8859-1"?>
<!-- Uploaded to: SVG Repo, www.svgrepo.com, Generator: SVG Repo Mixer Tools -->
<svg height="800px" width="800px" version="1.1" id="Layer_1" xmlns="http://www.w3.org/2000/svg" xmlns:xlink="http://www.w3.org/1999/xlink" 
	 viewBox="0 0 512 512" xml:space="preserve">
<g>
	<path style="fill:#D8143A;" d="M391.626,127.075c-21.042-8.955-44.918-13.732-72.153-16.171c-12.651-1.133-26.031-1.766-40.2-2.064
		c-4.931-0.102-9.948-0.172-15.071-0.203c-2.656-0.016-5.32-0.029-8.029-0.031c-0.059,0-0.116,0-0.175,0
		c-2.766,0-5.486,0.014-8.198,0.031c-5.123,0.033-10.141,0.101-15.071,0.203c-14.168,0.298-27.55,0.929-40.2,2.062
		c-27.237,2.441-51.115,7.218-72.156,16.173c-47.182,20.081-71.104,58.231-71.104,113.391c0,52.393,25.091,118.016,67.12,175.542
		C137.472,444.871,193.288,512,255.997,512c0.059,0,0.116-0.003,0.175-0.003c62.639-0.126,118.373-67.154,139.439-95.988
		c42.029-57.526,67.122-123.15,67.122-175.543C462.733,185.308,438.809,147.158,391.626,127.075z"/>
	<path style="fill:#D8143A;" d="M391.626,127.075c-21.04-8.955-44.918-13.732-72.153-16.171c-12.651-1.133-26.031-1.766-40.2-2.064
		c-4.931-0.102-9.948-0.172-15.071-0.203c-2.656-0.016-5.32-0.029-8.029-0.029c-0.059,0-0.116-0.002-0.175-0.002
		c-2.766,0-5.486,0.014-8.198,0.031c-5.123,0.033-10.141,0.101-15.071,0.203c-14.168,0.298-27.55,0.929-40.2,2.062
		c-27.237,2.441-51.115,7.218-72.156,16.173c-47.182,20.081-71.104,58.231-71.104,113.391c0,52.393,25.091,118.016,67.12,175.542
		C137.472,444.871,193.288,512,255.997,512c0.059,0,0.116-0.003,0.175-0.003c62.639-0.124,118.373-67.154,139.439-95.988
		c42.029-57.526,67.122-123.15,67.122-175.543C462.733,185.308,438.809,147.158,391.626,127.075z"/>
</g>
<path style="fill:#76B46D;" d="M247.799,108.637c2.712-0.017,5.432-0.031,8.198-0.031c2.769,0,5.491,0.014,8.204,0.031
	c5.123,0.033,10.141,0.101,15.071,0.203c14.168,0.298,27.549,0.929,40.2,2.064l28.641-22.913
	c10.038-8.029,11.664-22.674,3.635-32.711c-8.032-10.038-22.677-11.664-32.711-3.635l-39.765,31.812V23.273
	C279.273,10.42,268.853,0,256,0c-12.853,0-23.273,10.42-23.273,23.273v60.185l-39.765-31.812
	c-10.037-8.031-24.683-6.402-32.711,3.635c-8.029,10.037-6.403,24.682,3.635,32.711l28.641,22.913
	c12.65-1.133,26.031-1.764,40.2-2.062C237.658,108.738,242.676,108.668,247.799,108.637z"/>
<g>
	<path style="fill:#FF3F62;" d="M162.915,263.762c6.113,0,12.119-2.498,16.448-6.827c4.344-4.329,6.825-10.333,6.825-16.446
		c0-6.128-2.482-12.133-6.825-16.462c-4.329-4.329-10.333-6.811-16.448-6.811c-6.128,0-12.131,2.482-16.46,6.811
		c-4.329,4.329-6.813,10.333-6.813,16.462s2.484,12.117,6.813,16.446C150.784,261.266,156.787,263.762,162.915,263.762z"/>
	<path style="fill:#FF3F62;" d="M272.452,379.181c-0.538-0.538-1.102-1.047-1.69-1.527c-0.334-0.272-0.687-0.514-1.035-0.765
		c-0.264-0.192-0.515-0.399-0.787-0.58c-0.493-0.327-1.008-0.622-1.525-0.912c-0.14-0.078-0.272-0.169-0.411-0.245
		c-0.621-0.33-1.258-0.63-1.907-0.905c-0.042-0.019-0.085-0.043-0.127-0.062c-2.773-1.157-5.767-1.784-8.791-1.808
		c-0.003,0-0.006,0-0.009,0c-0.056,0-0.11-0.008-0.166-0.008c-6.128,0-12.131,2.482-16.46,6.811
		c-4.329,4.329-6.813,10.333-6.813,16.462c0,6.129,2.484,12.117,6.813,16.446c4.329,4.344,10.332,6.827,16.46,6.827
		c0.056,0,0.11-0.008,0.166-0.008c0.003,0,0.006,0,0.009,0c3.024-0.023,6.017-0.65,8.789-1.809c0.051-0.022,0.099-0.05,0.15-0.071
		c0.641-0.271,1.271-0.566,1.885-0.895c0.15-0.081,0.292-0.178,0.439-0.262c0.506-0.285,1.012-0.574,1.497-0.898
		c0.282-0.188,0.546-0.405,0.818-0.607c0.337-0.245,0.681-0.479,1.002-0.743c0.588-0.481,1.151-0.991,1.69-1.531
		c4.344-4.329,6.825-10.333,6.825-16.446C279.279,389.513,276.797,383.524,272.452,379.181z"/>
	<path style="fill:#FF3F62;" d="M272.452,224.029c-0.538-0.538-1.102-1.047-1.69-1.527c-0.334-0.272-0.687-0.514-1.035-0.765
		c-0.264-0.192-0.515-0.399-0.787-0.58c-0.493-0.327-1.008-0.622-1.525-0.912c-0.14-0.078-0.272-0.169-0.411-0.245
		c-0.621-0.33-1.258-0.63-1.907-0.905c-0.042-0.019-0.085-0.043-0.127-0.062c-2.773-1.157-5.767-1.784-8.791-1.807
		c-0.003,0-0.006,0-0.009,0c-0.056,0-0.11-0.008-0.166-0.008c-6.128,0-12.131,2.482-16.46,6.811s-6.813,10.333-6.813,16.462
		s2.484,12.117,6.813,16.446c4.329,4.344,10.332,6.827,16.46,6.827c0.056,0,0.11-0.008,0.166-0.008c0.003,0,0.006,0,0.009,0
		c3.024-0.023,6.017-0.65,8.789-1.809c0.051-0.022,0.099-0.05,0.15-0.071c0.641-0.272,1.271-0.566,1.885-0.895
		c0.15-0.081,0.292-0.178,0.439-0.262c0.506-0.285,1.012-0.574,1.497-0.898c0.282-0.188,0.546-0.405,0.818-0.607
		c0.337-0.245,0.681-0.479,1.002-0.743c0.588-0.481,1.151-0.991,1.69-1.531c4.344-4.329,6.825-10.333,6.825-16.446
		C279.279,234.361,276.797,228.372,272.452,224.029z"/>
	<path style="fill:#FF3F62;" d="M349.082,263.762c6.128,0,12.133-2.482,16.462-6.827c4.329-4.329,6.825-10.333,6.825-16.446
		c0-6.128-2.496-12.133-6.825-16.462c-4.329-4.329-10.333-6.811-16.462-6.811c-6.113,0-12.116,2.482-16.446,6.811
		c-4.329,4.329-6.813,10.333-6.813,16.462c0,6.113,2.484,12.117,6.813,16.446C336.966,261.28,342.969,263.762,349.082,263.762z"/>
	<path style="fill:#FF3F62;" d="M286.092,334.513c4.329,4.329,10.332,6.827,16.46,6.827c6.113,0,12.119-2.498,16.448-6.827
		c4.329-4.329,6.825-10.333,6.825-16.446c0-6.128-2.496-12.117-6.825-16.462c-4.329-4.329-10.318-6.811-16.448-6.811
		c-6.128,0-12.131,2.482-16.46,6.811c-4.329,4.329-6.813,10.333-6.813,16.462C279.279,324.194,281.763,330.184,286.092,334.513z"/>
	<path style="fill:#FF3F62;" d="M193.001,334.513c4.329,4.344,10.332,6.827,16.46,6.827c6.113,0,12.119-2.482,16.448-6.827
		c4.329-4.329,6.811-10.318,6.811-16.446c0-6.128-2.482-12.133-6.811-16.462c-4.329-4.329-10.333-6.811-16.448-6.811
		c-6.128,0-12.131,2.482-16.46,6.811c-4.329,4.329-6.813,10.333-6.813,16.462C186.188,324.194,188.67,330.184,193.001,334.513z"/>
</g>
<g>
	<path style="fill:#D8143A;" d="M265.1,374.247c0.649,0.275,1.285,0.573,1.907,0.905C266.384,374.82,265.748,374.522,265.1,374.247z
		"/>
	<path style="fill:#D8143A;" d="M270.764,413.62c-0.321,0.264-0.667,0.496-1.002,0.743
		C270.097,414.116,270.443,413.884,270.764,413.62z"/>
	<path style="fill:#D8143A;" d="M256.182,372.378c3.024,0.023,6.018,0.65,8.791,1.807
		C262.198,373.026,259.205,372.401,256.182,372.378z"/>
	<path style="fill:#D8143A;" d="M267.416,375.395c0.517,0.29,1.032,0.585,1.525,0.912
		C268.448,375.98,267.933,375.685,267.416,375.395z"/>
	<path style="fill:#D8143A;" d="M269.729,376.889c0.348,0.253,0.701,0.493,1.035,0.765
		C270.431,377.381,270.075,377.141,269.729,376.889z"/>
	<path style="fill:#D8143A;" d="M264.971,417.097c-2.773,1.159-5.765,1.786-8.789,1.809
		C259.205,418.881,262.198,418.257,264.971,417.097z"/>
	<path style="fill:#D8143A;" d="M267.006,416.129c-0.614,0.329-1.244,0.624-1.885,0.895
		C265.761,416.751,266.392,416.458,267.006,416.129z"/>
	<path style="fill:#D8143A;" d="M268.943,414.968c-0.486,0.323-0.991,0.613-1.497,0.898
		C267.951,415.58,268.457,415.291,268.943,414.968z"/>
	<path style="fill:#D8143A;" d="M268.943,259.817c-0.486,0.323-0.991,0.613-1.497,0.898
		C267.951,260.428,268.457,260.141,268.943,259.817z"/>
	<path style="fill:#D8143A;" d="M265.1,219.096c0.649,0.275,1.285,0.573,1.907,0.905C266.384,219.668,265.748,219.37,265.1,219.096z
		"/>
	<path style="fill:#D8143A;" d="M270.764,258.468c-0.321,0.264-0.667,0.497-1.002,0.743
		C270.097,258.965,270.443,258.732,270.764,258.468z"/>
	<path style="fill:#D8143A;" d="M256.182,217.226c3.024,0.023,6.018,0.65,8.791,1.807
		C262.198,217.875,259.205,217.249,256.182,217.226z"/>
	<path style="fill:#D8143A;" d="M269.729,221.738c0.348,0.253,0.701,0.493,1.035,0.765
		C270.431,222.23,270.075,221.989,269.729,221.738z"/>
	<path style="fill:#D8143A;" d="M264.971,261.944c-2.773,1.159-5.765,1.786-8.789,1.809
		C259.205,263.73,262.198,263.106,264.971,261.944z"/>
	<path style="fill:#D8143A;" d="M267.006,260.977c-0.614,0.329-1.244,0.624-1.885,0.895
		C265.761,261.599,266.392,261.306,267.006,260.977z"/>
	<path style="fill:#D8143A;" d="M267.416,220.244c0.517,0.29,1.032,0.585,1.525,0.912
		C268.448,220.829,267.933,220.534,267.416,220.244z"/>
</g>
<path style="fill:#B8002B;" d="M116.387,416.008C137.472,444.871,193.288,512,255.997,512c0.059,0,0.116-0.003,0.175-0.003v-93.091
	c-0.056,0-0.11,0.008-0.166,0.008c-6.128,0-12.131-2.482-16.46-6.827c-4.329-4.329-6.813-10.318-6.813-16.446
	c0-6.128,2.484-12.133,6.813-16.462c4.329-4.329,10.332-6.811,16.46-6.811c0.056,0,0.11,0.008,0.166,0.008V263.753
	c-0.056,0-0.11,0.008-0.166,0.008c-6.128,0-12.131-2.482-16.46-6.827c-4.329-4.329-6.813-10.318-6.813-16.446
	c0-6.128,2.484-12.133,6.813-16.462c4.329-4.329,10.332-6.811,16.46-6.811c0.056,0,0.11,0.008,0.166,0.008V108.608
	c-0.059,0-0.116-0.002-0.175-0.002c-2.766,0-5.486,0.014-8.198,0.031c-5.123,0.033-10.141,0.101-15.071,0.203
	c-14.168,0.298-27.55,0.929-40.2,2.062c-27.237,2.441-51.115,7.218-72.156,16.173c-47.182,20.081-71.104,58.231-71.104,113.391
	C49.267,292.859,74.358,358.482,116.387,416.008z M193.001,301.605c4.329-4.329,10.332-6.811,16.46-6.811
	c6.113,0,12.119,2.482,16.448,6.811c4.329,4.329,6.811,10.333,6.811,16.462s-2.482,12.117-6.811,16.446
	c-4.329,4.344-10.333,6.827-16.448,6.827c-6.128,0-12.131-2.482-16.46-6.827c-4.329-4.329-6.813-10.318-6.813-16.446
	C186.188,311.937,188.67,305.934,193.001,301.605z M146.455,224.029c4.329-4.329,10.332-6.811,16.46-6.811
	c6.113,0,12.119,2.482,16.448,6.811c4.344,4.329,6.825,10.333,6.825,16.462c0,6.113-2.482,12.117-6.825,16.446
	c-4.329,4.329-10.333,6.827-16.448,6.827c-6.128,0-12.131-2.498-16.46-6.827c-4.329-4.329-6.813-10.318-6.813-16.446
	C139.643,234.361,142.125,228.358,146.455,224.029z"/>
</svg>